<?xml version="1.0" encoding="utf-8"?>
<!-- Generator: Adobe Illustrator 19.1.0, SVG Export Plug-In . SVG Version: 6.00 Build 0)  -->
<!DOCTYPE svg PUBLIC "-//W3C//DTD SVG 1.1//EN" "http://www.w3.org/Graphics/SVG/1.1/DTD/svg11.dtd">
<svg version="1.1" id="Layer_1" xmlns="http://www.w3.org/2000/svg" xmlns:xlink="http://www.w3.org/1999/xlink" x="0px" y="0px"
	 viewBox="0 0 140 69.8" style="enable-background:new 0 0 140 69.8;" xml:space="preserve">
<style type="text/css">
	.st0{fill:#231F20;}
	.st1{fill:#EF4758;}
</style>
<g>
	<path class="st0" d="M10,27.4H7V2.8H0.4V0h16.4v2.8H10V27.4z"/>
	<path class="st0" d="M47.2,11.1V0h3.1v27.4h-3.1V14h-14v13.4h-3.1V0h3.1v11.1H47.2z"/>
	<path class="st0" d="M71.8,27.4h-3.1V0h3.1V27.4z"/>
	<path class="st0" d="M93.6,27.4h-3.1V0h4c5.2,0,10,1.4,10,7.6c0,4.2-2.7,7.2-6.9,7.6l8.7,12.3h-3.7l-8.3-12h-0.8V27.4z M93.6,12.7
		h0.9c3.5,0,6.9-0.7,6.9-4.9c0-4.5-3.3-4.9-7-4.9h-0.9V12.7z"/>
	<path class="st0" d="M119.6,0h5.2c4.1,0,7.5,0.5,10.7,3.3c3.1,2.7,4.5,6.4,4.5,10.4c0,4-1.5,7.5-4.5,10.2
		c-3.3,2.9-6.5,3.5-10.8,3.5h-5.1V0z M124.9,24.6c3.3,0,6.1-0.5,8.7-2.8c2.3-2.1,3.4-5,3.4-8c0-3.1-1.2-6.1-3.6-8.2
		c-2.5-2.2-5.3-2.7-8.5-2.7h-2.2v21.7H124.9z"/>
	<path class="st0" d="M13.7,47.2c-1.1-1.9-2.4-3-4.7-3c-2.4,0-4.5,1.7-4.5,4.3c0,2.4,2.4,3.5,4.3,4.3l1.8,0.8
		c3.6,1.6,6.6,3.3,6.6,7.7c0,4.8-3.9,8.5-8.6,8.5c-4.4,0-7.7-2.8-8.5-7.1l3-0.8c0.4,2.8,2.5,5.1,5.5,5.1s5.6-2.3,5.6-5.3
		c0-3.2-2.5-4.3-5.1-5.5l-1.7-0.7c-3.2-1.5-6-3.1-6-7c0-4.3,3.6-7,7.7-7c3.1,0,5.6,1.6,7.1,4.3L13.7,47.2z"/>
	<path class="st0" d="M33.2,69.3h-3.1V41.9h4.5c2.4,0,5.4,0.1,7.4,1.5c2,1.4,3.1,3.8,3.1,6.3c0,2.2-0.9,4.5-2.6,5.9
		c-1.9,1.5-4.2,1.8-6.5,1.8h-2.8V69.3z M33.2,54.5h2.6c3.4,0,6.3-1,6.3-4.9c0-4.5-4.2-4.8-7.7-4.8h-1.1V54.5z"/>
	<path class="st0" d="M59.1,61.5l-3.3,7.8h-3.3l12.6-28.7l12.3,28.7H74l-3.2-7.8H59.1z M65,47.7l-4.7,11h9.3L65,47.7z"/>
	<path class="st0" d="M107.7,47.9c-2.2-2.3-5.2-3.6-8.4-3.6c-6.1,0-11,5.3-11,11.3s5,11.3,11.1,11.3c3.1,0,6.1-1.5,8.3-3.6v3.8
		c-2.4,1.7-5.3,2.7-8.2,2.7c-7.7,0-14.3-6.3-14.3-14.1c0-7.9,6.4-14.3,14.3-14.3c3.1,0,5.7,0.9,8.2,2.7V47.9z"/>
	<g>
		<rect x="119.6" y="66.5" class="st1" width="19.7" height="2.8"/>
		<rect x="119.6" y="41.9" class="st1" width="19.7" height="2.8"/>
		<rect x="119.6" y="54.2" class="st1" width="19.7" height="2.8"/>
	</g>
</g>
</svg>
