<?xml version="1.0" encoding="utf-8"?>
<!-- Generator: Adobe Illustrator 19.1.0, SVG Export Plug-In . SVG Version: 6.00 Build 0)  -->
<!DOCTYPE svg PUBLIC "-//W3C//DTD SVG 1.1//EN" "http://www.w3.org/Graphics/SVG/1.1/DTD/svg11.dtd">
<svg version="1.1" id="Layer_1" xmlns="http://www.w3.org/2000/svg" xmlns:xlink="http://www.w3.org/1999/xlink" x="0px" y="0px"
	 viewBox="-474 658.8 135.6 135.6" style="enable-background:new -474 658.8 135.6 135.6;" xml:space="preserve">
<style type="text/css">
	.st0{fill:#F21970;}
	.st1{fill:none;stroke:#FFFFFF;stroke-width:4;stroke-linecap:round;stroke-linejoin:round;stroke-miterlimit:10;}
</style>
<circle class="st0" cx="-406.2" cy="726.6" r="67.8"/>
<g>
	<path class="st1" d="M-397.7,738.6l18.3-10.6c3.6-2.1,8.1-0.9,10.2,2.7c2.1,3.6,0.9,8.1-2.7,10.2l-28.6,16.6c-1.1,0.7-2.4,1-3.7,1
		c-0.7,0-1.4-0.1-2.1-0.3l-18-5.4L-438,763l-11.6-15.5l18.1-14.5c0,0,6.3-5.4,13.1-4c1.9,0.5,3.7,1,5.6,1.6c0.3,0,0.8,0.2,1.1,0.3
		c0.4,0.1,0.8,0.2,1.3,0.4c0.8,0.2,1.6,0.5,2.5,0.7c1.6,0.4,3.2,0.9,4.8,1.3c0,0,2.9,0.9,4,2.2c1.1,1.2,1.6,2.8,1.6,4.4
		c0,3.7-3.4,7.2-7.2,6.5c-1-0.2-14.3-4.4-14.3-4.4"/>
	<path class="st1" d="M-380,700.1C-380,700.1-379.9,700-380,700.1c0-6.1-4.7-10.9-10.6-10.9c-4.4,0-8.2,3.3-9.8,7.2
		c-1.6-4-5.4-7.2-9.8-7.2c-5.8,0-10.6,4.9-10.6,10.9c0,0.4,0,0.8,0.1,1.2c1.2,12.4,20.5,23.7,20.5,23.7l0,0
		C-400.2,725-379.9,713-380,700.1L-380,700.1z"/>
</g>
</svg>
