<?xml version="1.0" encoding="utf-8"?>
<!-- Generator: Adobe Illustrator 19.1.0, SVG Export Plug-In . SVG Version: 6.00 Build 0)  -->
<!DOCTYPE svg PUBLIC "-//W3C//DTD SVG 1.1//EN" "http://www.w3.org/Graphics/SVG/1.1/DTD/svg11.dtd">
<svg version="1.1" id="Layer_1" xmlns="http://www.w3.org/2000/svg" xmlns:xlink="http://www.w3.org/1999/xlink" x="0px" y="0px"
	 viewBox="-474 658.8 135.6 135.6" style="enable-background:new -474 658.8 135.6 135.6;" xml:space="preserve">
<style type="text/css">
	.st0{fill:#FF9E1F;}
	.st1{fill:none;stroke:#FFFFFF;stroke-width:4;stroke-linecap:round;stroke-miterlimit:10;}
</style>
<circle class="st0" cx="-406.2" cy="726.6" r="67.8"/>
<g>
	<g>
		<path class="st1" d="M-406.8,703.4c-11.4,0-21.3,8.5-22.8,19.8c-0.5,3.5-0.1,7.1,1,10.4c1.7,5.1,5.4,8.2,8.1,12.6
			c1.1,1.8,2.2,3.7,3.1,5.7h21.1c1-1.9,2-3.8,3.1-5.7c2.7-4.4,6.4-7.6,8.1-12.6c1.1-3.3,1.5-6.9,1-10.4
			C-385.5,711.9-395.4,703.4-406.8,703.4"/>
		<path class="st1" d="M-401.9,771.3h-9.6c-3.2,0-5.8-2.6-5.8-5.8V752h21.2v13.5C-396.1,768.7-398.7,771.3-401.9,771.3z"/>
		<line class="st1" x1="-417.4" y1="762.9" x2="-396.1" y2="762.9"/>
		<polyline class="st1" points="-397.8,725.3 -406.8,734.3 -415.9,725.3 		"/>
		<line class="st1" x1="-406.8" y1="734.3" x2="-406.8" y2="752"/>
	</g>
	<g>
		<line class="st1" x1="-371.8" y1="704.1" x2="-380" y2="708.9"/>
		<line class="st1" x1="-441.8" y1="704.1" x2="-433.6" y2="708.9"/>
	</g>
	<g>
		<line class="st1" x1="-421.8" y1="688.2" x2="-417.1" y2="696.5"/>
		<line class="st1" x1="-391.8" y1="688.2" x2="-396.5" y2="696.5"/>
	</g>
	<g>
		<line class="st1" x1="-439.4" y1="727.7" x2="-448.8" y2="727.7"/>
		<line class="st1" x1="-364.8" y1="727.7" x2="-374.3" y2="727.7"/>
	</g>
</g>
</svg>
